HIERARCHY
ROOT RootJoint
{
    OFFSET   0.000000   0.000000   0.000000
    CHANNELS 6 Xposition Yposition Zposition Xrotation Yrotation Zrotation
    JOINT pelvis_lowerback
    {
        OFFSET   0.000000   0.093605   0.000000
        CHANNELS 3 Xrotation Yrotation Zrotation
        JOINT lowerback_torso
        {
            OFFSET   0.000000   0.100000   0.000000
            CHANNELS 3 Xrotation Yrotation Zrotation
            JOINT torso_head
            {
                OFFSET   0.000000   0.282350   0.000000
                CHANNELS 3 Xrotation Yrotation Zrotation
                End Site
                {
                    OFFSET   0.000000   0.192650   0.000000
                }
            }
            JOINT rTorso_Clavicle
            {
                OFFSET  -0.001000   0.157500   0.000000
                CHANNELS 3 Xrotation Yrotation Zrotation
                JOINT rShoulder
                {
                    OFFSET  -0.117647   0.000000   0.000000
                    CHANNELS 3 Xrotation Yrotation Zrotation
                    JOINT rElbow
                    {
                        OFFSET  -0.245000   0.000000   0.000000
                        CHANNELS 3 Xrotation Yrotation Zrotation
                        JOINT rWrist
                        {
                            OFFSET  -0.240000   0.000000   0.000000
                            CHANNELS 3 Xrotation Yrotation Zrotation
                            End Site
                            {
                                OFFSET  -0.116353  -0.002500   0.000000
                            }
                        }
                    }
                }
            }
            JOINT lTorso_Clavicle
            {
                OFFSET   0.001000   0.157500   0.000000
                CHANNELS 3 Xrotation Yrotation Zrotation
                JOINT lShoulder
                {
                    OFFSET   0.117647   0.000000   0.000000
                    CHANNELS 3 Xrotation Yrotation Zrotation
                    JOINT lElbow
                    {
                        OFFSET   0.245000   0.000000   0.000000
                        CHANNELS 3 Xrotation Yrotation Zrotation
                        JOINT lWrist
                        {
                            OFFSET   0.240000   0.000000   0.000000
                            CHANNELS 3 Xrotation Yrotation Zrotation
                            End Site
                            {
                                OFFSET   0.116353  -0.002500   0.000000
                            }
                        }
                    }
                }
            }
        }
    }
    JOINT rHip
    {
        OFFSET  -0.100000  -0.051395   0.000000
        CHANNELS 3 Xrotation Yrotation Zrotation
        JOINT rKnee
        {
            OFFSET   0.000000  -0.410000   0.000000
            CHANNELS 3 Xrotation Yrotation Zrotation
            JOINT rAnkle
            {
                OFFSET   0.000000  -0.390000   0.000000
                CHANNELS 3 Xrotation Yrotation Zrotation
                JOINT rToeJoint
                {
                    OFFSET   0.000000  -0.050000   0.130000
                    CHANNELS 3 Xrotation Yrotation Zrotation
                    End Site
                    {
                        OFFSET  -0.010000   0.002000   0.060000
                    }
                }
            }
        }
    }
    JOINT lHip
    {
        OFFSET   0.100000  -0.051395   0.000000
        CHANNELS 3 Xrotation Yrotation Zrotation
        JOINT lKnee
        {
            OFFSET   0.000000  -0.410000   0.000000
            CHANNELS 3 Xrotation Yrotation Zrotation
            JOINT lAnkle
            {
                OFFSET   0.000000  -0.390000   0.000000
                CHANNELS 3 Xrotation Yrotation Zrotation
                JOINT lToeJoint
                {
                    OFFSET   0.000000  -0.050000   0.130000
                    CHANNELS 3 Xrotation Yrotation Zrotation
                    End Site
                    {
                        OFFSET   0.010000   0.002000   0.060000
                    }
                }
            }
        }
    }
}
MOTION
Frames: 14
Frame Time:   0.008333
 -2.376719   0.925631   3.975860   0.000000   0.000000   0.000000   0.000000   0.000000   0.000000   0.000000   0.000000   0.000000   0.000000   0.000000   0.000000   0.000000   0.000000   0.000000   0.000000   0.000000   0.000000   0.000000   0.000000   0.000000   0.000000   0.000000   0.000000   0.000000   0.000000   0.000000   0.000000   0.000000   0.000000   0.000000   0.000000   0.000000   0.000000   0.000000   0.000000   0.000000   0.000000   0.000000   0.000000   0.000000   0.000000   0.000000   0.000000   0.000000   0.000000   0.000000   0.000000   0.000000   0.000000   0.000000   0.000000   0.000000   0.000000   0.000000   0.000000   0.000000   0.000000   0.000000   0.000000
 -2.376555   0.926254   3.975946  -0.369310   0.129026   0.005221   0.355580  -0.031210   0.000919   0.204205  -0.162753   0.024273  -0.118072   0.131618   0.039738   0.233500  -0.326956   0.438949   0.967575   0.237021   1.987697   0.020001   0.926861  -0.011378   0.431168  -0.323908  -2.743536   0.284989   0.274648  -0.516463   1.226781  -0.069000  -1.939281   0.019849  -0.931027   0.013964   0.456301   0.254909   2.662556   0.167819   0.092122  -0.144102   0.790773   0.000974   0.001518  -0.826412  -0.140899   0.050974  -0.049018  -0.000037  -0.000035   0.093519  -0.069623   0.088206   1.068901  -0.000863   0.000564  -1.047801   0.144723   0.088948   0.309871  -0.000491   0.000552
 -2.376332   0.927303   3.976151  -0.787277   0.282115   0.007257   0.700464  -0.080035   0.015936   0.464839  -0.344137   0.060307  -0.205260   0.257509   0.083740   0.465490  -0.611270   1.609280   1.909624   0.538213   4.562658   0.046335   1.826371  -0.019859   0.904888  -0.382848  -4.757762   0.570153   0.486709  -1.768195   2.430292  -0.225406  -4.477124   0.045950  -1.834732   0.024563   0.964665   0.253967   4.581119   0.365696   0.183439  -0.391096   1.645946   0.002687   0.002978  -1.598034  -0.274054   0.096034  -0.133092  -0.000177  -0.000110   0.255743  -0.128224   0.267825   2.218013  -0.002458   0.001475  -2.025346   0.281967   0.175447   0.555451  -0.000959   0.000944
 -2.376071   0.928356   3.976458  -1.184456   0.436714   0.007205   1.011363  -0.138941   0.041118   0.709956  -0.528920   0.103832  -0.283315   0.375033   0.127010   0.686935  -0.845221   3.223754   2.818997   0.900708   7.522574   0.072182   2.673517  -0.025403   1.367417  -0.349521  -5.926475   0.839862   0.635480  -3.458595   3.602613  -0.471280  -7.403671   0.071614  -2.689548   0.031852   1.461734   0.146110   5.656007   0.546792   0.266118  -0.719992   2.461850   0.004622   0.003935  -2.317577  -0.399993   0.135766  -0.214940  -0.000350  -0.000168   0.445467  -0.177861   0.523315   3.322167  -0.004321   0.002365  -2.936793   0.410232   0.259102   0.777308  -0.001410   0.001219
 -2.375789   0.929109   3.976860  -1.548567   0.582584   0.005826   1.289573  -0.204024   0.073572   0.927528  -0.712428   0.152704  -0.357818   0.484699   0.168301   0.898361  -1.039171   5.086727   3.695748   1.324491  10.739546   0.094512   3.468592  -0.028707   1.813676  -0.270351  -6.465777   1.092327   0.736204  -5.389322   4.743915  -0.806072 -10.586716   0.093829  -3.495597   0.036638   1.942691  -0.025994   6.110966   0.703179   0.340564  -1.113630   3.222501   0.006475   0.004397  -2.989763  -0.519051   0.170799  -0.296469  -0.000539  -0.000206   0.650270  -0.220479   0.839942   4.364041  -0.006176   0.003107  -3.787990   0.529825   0.339820   0.974769  -0.001793   0.001378
 -2.375495   0.929336   3.977357  -1.879547   0.713986   0.003540   1.538116  -0.273070   0.111435   1.118045  -0.892508   0.205510  -0.428795   0.587022   0.207264   1.099827  -1.203970   7.068005   4.538598   1.806009  14.126105   0.112129   4.213075  -0.030348   2.242047  -0.165959  -6.580406   1.326413   0.802780  -7.429728   5.852307  -1.225406 -13.936461   0.111402  -4.253912   0.039568   2.405791  -0.239850   6.153315   0.835899   0.408013  -1.557265   3.928541   0.008089   0.004463  -3.617859  -0.631429   0.201712  -0.376821  -0.000726  -0.000225   0.865762  -0.257350   1.204553   5.344321  -0.007867   0.003663  -4.583048   0.641177   0.417507   1.150652  -0.002092   0.001442
 -2.375225   0.928864   3.977940  -2.180320   0.828548   0.002419   1.759900  -0.344373   0.149069   1.284523  -1.067685   0.252324  -0.495756   0.682410   0.246390   1.292016  -1.349411   9.086321   5.345903   2.340107  17.626474   0.124831   4.908592  -0.030770   2.651276  -0.050651  -6.417118   1.543157   0.847188  -9.524443   6.892012  -1.709419 -17.304238   0.123870  -4.966486   0.040919   2.850450  -0.484846   5.887050   0.947925   0.469583  -2.037589   4.583776   0.009377   0.004247  -4.204729  -0.737370   0.228972  -0.455064  -0.000895  -0.000226   1.089396  -0.289399   1.606181   6.266698  -0.009333   0.004041  -5.325583   0.744708   0.492051   1.307982  -0.002309   0.001435
 -2.375083   0.926963   3.977954  -2.199894   0.851005  -0.070311   1.796603  -0.359335   0.260916   1.409631  -1.202045   0.283165  -0.673536   0.647785   0.236171   1.554286  -1.351792  10.476159   6.211903   2.867496  21.048062   0.137260   5.746119  -0.034072   3.019702   0.072298  -5.164598   1.803386   0.875804 -10.896301   7.689579  -2.198943 -20.611007   0.135211  -5.823303   0.042870   3.265331  -0.829773   4.540069   0.521418   0.283384  -2.393614   5.750627   0.011798   0.000978  -4.653978  -0.930136   0.519035  -0.488963  -0.000760  -0.000070   1.045795  -0.244968   2.055740   6.706806  -0.008845   0.003719  -5.832501   0.861222   0.548583   1.445194  -0.002353   0.001395
 -2.374991   0.923853   3.977780  -2.200165   0.898172  -0.152546   1.870415  -0.379515   0.372941   1.530601  -1.326053   0.324168  -0.847128   0.609525   0.219746   1.784997  -1.316583  11.610787   6.983875   3.424418  24.132327   0.141302   6.540296  -0.035978   3.386354   0.276015  -3.952836   2.030683   0.877671 -11.977003   8.402295  -2.703770 -23.562435   0.137950  -6.633694   0.043432   3.662789  -1.255372   3.282566   0.097126   0.092081  -2.698601   6.884526   0.013102  -0.001466  -5.065399  -1.115540   0.788274  -0.490230  -0.000610  -0.000052   0.937453  -0.207745   2.481233   7.024946  -0.007973   0.003376  -6.309096   0.969284   0.602597   1.573689  -0.002311   0.001362
 -2.374914   0.919651   3.977527  -2.196115   0.961181  -0.234677   1.966302  -0.394274   0.482597   1.657095  -1.437355   0.372752  -1.005081   0.573463   0.202293   1.987629  -1.265449  12.558486   7.670761   3.987890  26.927018   0.139663   7.286845  -0.036652   3.738877   0.505728  -2.942386   2.230812   0.867547 -12.851562   9.040771  -3.205865 -26.216385   0.135027  -7.392538   0.042736   4.039112  -1.685400   2.261309  -0.287437  -0.085358  -2.968916   7.948341   0.013539  -0.003046  -5.448018  -1.290196   1.038319  -0.487169  -0.000485  -0.000051   0.782800  -0.174887   2.869721   7.287958  -0.007031   0.003054  -6.755473   1.069491   0.653898   1.690108  -0.002195   0.001318
 -2.374721   0.918366   3.977708  -2.332107   0.940207   0.249112   2.122726  -0.372784   0.141939   1.834872  -1.517768   0.235109  -1.139563   0.540688   0.169041   2.166193  -1.194507  13.645559   8.275613   4.562308  29.590500   0.136186   7.982907  -0.036119   4.074806   0.704482  -2.118112   2.413257   0.857958 -13.750950   9.614926  -3.689583 -28.654133   0.129850  -8.086523   0.040906   4.391189  -2.009875   1.509005  -0.471964  -0.234977  -3.718517   8.943193   0.012831  -0.004646  -5.794331  -1.457640   1.267633  -0.409168  -0.000360  -0.000298   0.476185  -0.011210   2.380919   8.122228  -0.005372   0.003747  -6.567836   1.240744   0.525634   1.856758  -0.001557   0.001539
 -2.374994   0.918052   3.978059  -2.441859   0.952047   0.322075   2.242425  -0.355811   0.193294   1.992783  -1.587779   0.218057  -1.263227   0.509772   0.133583   2.334867  -1.135592  14.554807   8.819234   5.116151  32.036403   0.130143   8.634072  -0.034776   4.393397   0.916594  -1.297265   2.588816   0.860258 -14.585782  10.133157  -4.165348 -30.968998   0.122803  -8.740156   0.038366   4.723986  -2.347088   0.724874  -0.756178  -0.234760  -3.806579   9.817575   0.010294  -0.004026  -6.242528  -1.436824   1.579450  -0.463845  -0.000146  -0.000239   0.324208  -0.010396   2.329859   8.708766  -0.004345   0.003188  -6.829107   1.264550   0.516334   1.465149  -0.001223   0.001052
 -2.375401   0.917768   3.978507  -2.518433   0.956486   0.398798   2.332871  -0.328652   0.226616   2.124677  -1.642660   0.227604  -1.381565   0.481172   0.112054   2.494480  -1.088095  15.322593   9.308304   5.646300  34.284498   0.122183   9.243080  -0.032907   4.695879   1.134493  -0.533662   2.760743   0.879261 -15.273923  10.607462  -4.611879 -33.089282   0.113969  -9.348470   0.035366   5.037664  -2.679765  -0.021574  -1.047702  -0.348891  -3.859830  10.644172   0.007836  -0.004286  -6.653129  -1.556525   1.805787  -0.529867   0.000030  -0.000042   0.214542   0.020314   2.284193   9.161114  -0.003541   0.002771  -7.091848   1.330791   0.538415   1.399173  -0.000952   0.000775
 -2.375900   0.917529   3.978811  -2.511625   1.009747   0.460814   2.440023  -0.314176   0.216524   2.145773  -1.656488   0.317697  -1.460124   0.379719   0.042047   2.644793  -1.143422  15.646506   9.736610   6.124716  35.990415   0.111228   9.879821  -0.030930   4.936540   1.533968   0.956326   2.959551   0.926913 -15.512295  10.907904  -5.056228 -34.868273   0.105405 -10.110787   0.032554   5.302897  -3.022040  -1.341652  -1.313790  -0.385463  -3.906769  11.234203   0.006134  -0.003499  -6.977953  -1.553039   1.916760  -0.546881   0.000044  -0.000034   0.028682   0.038600   2.256409   9.554668  -0.002887   0.002525  -7.330014   1.364620   0.621378   1.429743  -0.000791   0.000652
